<?xml version="1.0" standalone="no"?>
<!DOCTYPE svg PUBLIC "-//W3C//DTD SVG 20010904//EN"
 "http://www.w3.org/TR/2001/REC-SVG-20010904/DTD/svg10.dtd">
<svg version="1.0" xmlns="http://www.w3.org/2000/svg"
 width="192.000000pt" height="192.000000pt" viewBox="0 0 192.000000 192.000000"
 preserveAspectRatio="xMidYMid meet">
<metadata>
Created by potrace 1.14, written by Peter Selinger 2001-2017
</metadata>
<g transform="translate(0.000000,192.000000) scale(0.100000,-0.100000)"
fill="#000000" stroke="none">
<path d="M937 1844 c-1 -1 -34 -5 -73 -8 -39 -4 -86 -11 -105 -17 -19 -5 -45
-12 -59 -15 -45 -9 -191 -83 -253 -128 -34 -24 -87 -71 -118 -103 -53 -54
-129 -155 -129 -170 0 -3 -6 -14 -14 -22 -24 -28 -75 -170 -91 -252 -8 -44
-14 -83 -14 -87 1 -4 1 -11 -1 -17 -4 -25 -1 -118 6 -171 4 -33 8 -69 8 -81 1
-13 4 -23 9 -23 4 0 7 -11 7 -24 0 -14 5 -28 10 -31 6 -3 10 -15 10 -26 0 -23
57 -146 78 -167 6 -7 12 -17 12 -22 0 -19 153 -190 170 -190 6 0 9 -4 6 -9 -3
-4 6 -13 20 -20 14 -6 23 -15 19 -20 -3 -5 0 -13 6 -17 8 -4 9 -3 5 4 -12 19
3 14 50 -18 46 -31 147 -80 165 -80 6 0 7 -5 3 -12 -4 -7 -3 -8 4 -4 6 4 37 0
69 -8 32 -8 81 -18 108 -21 28 -3 59 -7 70 -8 11 -2 19 -9 17 -16 -1 -7 2 -10
8 -6 6 3 8 11 5 16 -4 5 13 9 37 10 64 1 129 7 168 15 19 4 38 7 43 6 4 -1 7
3 7 9 0 5 4 8 8 5 11 -6 75 16 96 33 8 7 26 14 40 15 13 0 22 4 20 8 -2 4 6
10 18 14 13 4 24 5 25 3 2 -2 10 6 19 19 10 15 22 21 32 17 9 -3 13 -3 9 1 -4
4 12 21 36 38 23 17 50 41 60 53 10 13 24 20 30 16 7 -3 9 -3 5 2 -4 4 3 18
17 30 13 13 21 26 17 31 -4 4 1 4 10 1 10 -3 20 -1 24 5 4 7 3 8 -4 4 -22 -13
-12 9 18 42 16 18 29 36 30 40 0 4 6 14 13 22 7 8 13 19 14 23 4 21 29 67 36
67 5 0 6 4 3 9 -3 5 1 22 9 38 8 16 16 38 18 49 2 10 9 38 16 62 27 95 30 277
6 377 -16 67 -25 97 -50 160 -115 288 -405 508 -711 540 -89 9 -124 12 -127 9z"/>
<path d="M835 60 c3 -5 8 -10 11 -10 2 0 4 5 4 10 0 6 -5 10 -11 10 -5 0 -7
-4 -4 -10z"/>
</g>
</svg>
